<?xml version="1.0" encoding="UTF-8" standalone="no"?>
<!-- Created with Inkscape (http://www.inkscape.org/) -->

<svg
   xmlns:dc="http://purl.org/dc/elements/1.1/"
   xmlns:cc="http://creativecommons.org/ns#"
   xmlns:rdf="http://www.w3.org/1999/02/22-rdf-syntax-ns#"
   xmlns:svg="http://www.w3.org/2000/svg"
   xmlns="http://www.w3.org/2000/svg"
   xmlns:xlink="http://www.w3.org/1999/xlink"
   xmlns:sodipodi="http://sodipodi.sourceforge.net/DTD/sodipodi-0.dtd"
   xmlns:inkscape="http://www.inkscape.org/namespaces/inkscape"
   version="1.0"
   x="0.0000000"
   y="0.0000000"
   width="48.000000px"
   height="48.000000px"
   id="svg1"
   sodipodi:version="0.32"
   inkscape:version="0.48.4 r9939"
   sodipodi:docname="instrument_open.svg"
   inkscape:export-filename="C:\Users\thomas.DellWin-PC\Documents\Projects\Python\Transport\src\gui\icons\image_files\png\24instrument_open.png"
   inkscape:export-xdpi="45"
   inkscape:export-ydpi="45"
   inkscape:output_extension="org.inkscape.output.svg.inkscape">
  <metadata
     id="metadata162">
    <rdf:RDF>
      <cc:Work
         rdf:about="">
        <dc:format>image/svg+xml</dc:format>
        <dc:type
           rdf:resource="http://purl.org/dc/dcmitype/StillImage" />
        <dc:title></dc:title>
        <dc:creator>
          <cc:Agent>
            <dc:title>Jakub Steiner</dc:title>
          </cc:Agent>
        </dc:creator>
        <dc:date />
        <cc:license
           rdf:resource="http://creativecommons.org/licenses/GPL/2.0/" />
        <dc:identifier>http://jimmac.musichall.cz/</dc:identifier>
        <dc:subject>
          <rdf:Bag>
            <rdf:li>folder</rdf:li>
            <rdf:li>directory</rdf:li>
            <rdf:li>storage</rdf:li>
            <rdf:li>open</rdf:li>
            <rdf:li>active</rdf:li>
          </rdf:Bag>
        </dc:subject>
      </cc:Work>
      <cc:License
         rdf:about="http://creativecommons.org/licenses/GPL/2.0/">
        <cc:permits
           rdf:resource="http://web.resource.org/cc/Reproduction" />
        <cc:permits
           rdf:resource="http://web.resource.org/cc/Distribution" />
        <cc:requires
           rdf:resource="http://web.resource.org/cc/Notice" />
        <cc:permits
           rdf:resource="http://web.resource.org/cc/DerivativeWorks" />
        <cc:requires
           rdf:resource="http://web.resource.org/cc/ShareAlike" />
        <cc:requires
           rdf:resource="http://web.resource.org/cc/SourceCode" />
      </cc:License>
    </rdf:RDF>
  </metadata>
  <sodipodi:namedview
     id="base"
     pagecolor="#ffffff"
     bordercolor="#666666"
     borderopacity="0.15686275"
     inkscape:pageopacity="0.0"
     inkscape:pageshadow="2"
     inkscape:window-width="1097"
     inkscape:window-height="768"
     inkscape:cy="20.502671"
     inkscape:cx="-10.268399"
     inkscape:zoom="5.6568542"
     inkscape:document-units="px"
     showgrid="false"
     inkscape:window-x="203"
     inkscape:window-y="9"
     inkscape:current-layer="layer2"
     inkscape:showpageshadow="false"
     inkscape:window-maximized="0" />
  <defs
     id="defs3">
    <linearGradient
       id="linearGradient4734">
      <stop
         style="stop-color:#cccdbc;stop-opacity:1;"
         offset="0"
         id="stop4736" />
      <stop
         style="stop-color:#b9baa4;stop-opacity:1;"
         offset="1"
         id="stop4738" />
    </linearGradient>
    <linearGradient
       inkscape:collect="always"
       xlink:href="#linearGradient4734"
       id="linearGradient4740"
       x1="24.588383"
       y1="1.8991361"
       x2="24.588383"
       y2="40.858932"
       gradientUnits="userSpaceOnUse"
       gradientTransform="matrix(1,0,0,0.991434,0,0.167036)" />
    <linearGradient
       id="linearGradient356">
      <stop
         style="stop-color:#fffff3;stop-opacity:0.54455447;"
         offset="0.0000000"
         id="stop357" />
      <stop
         style="stop-color:#fffff3;stop-opacity:0.0000000;"
         offset="1.0000000"
         id="stop358" />
    </linearGradient>
    <linearGradient
       id="linearGradient311">
      <stop
         style="stop-color:#cfcfc4;stop-opacity:1.0000000;"
         offset="0.0000000"
         id="stop312" />
      <stop
         style="stop-color:#cfcfc4;stop-opacity:1.0000000;"
         offset="0.32673267"
         id="stop335" />
      <stop
         style="stop-color:#cfcfc4;stop-opacity:0;"
         offset="1"
         id="stop313" />
    </linearGradient>
    <linearGradient
       id="linearGradient235">
      <stop
         style="stop-color:#676756;stop-opacity:1;"
         offset="0"
         id="stop236" />
      <stop
         style="stop-color:#90937c;stop-opacity:1;"
         offset="1"
         id="stop237" />
    </linearGradient>
    <linearGradient
       inkscape:collect="always"
       xlink:href="#linearGradient235"
       id="linearGradient253"
       gradientTransform="scale(1.068312,0.936056)"
       x1="24.866016"
       y1="31.315151"
       x2="24.866016"
       y2="14.650744"
       gradientUnits="userSpaceOnUse" />
    <linearGradient
       inkscape:collect="always"
       xlink:href="#linearGradient311"
       id="linearGradient320"
       gradientUnits="userSpaceOnUse"
       gradientTransform="scale(0.750458,1.332520)"
       x1="32.827568"
       y1="7.9206076"
       x2="60.071049"
       y2="7.8678756" />
    <linearGradient
       inkscape:collect="always"
       xlink:href="#linearGradient356"
       id="linearGradient2892"
       gradientUnits="userSpaceOnUse"
       gradientTransform="matrix(0.806859,0,0,1.088091,-0.176777,4.910471)"
       x1="18.513338"
       y1="15.211389"
       x2="22.805771"
       y2="25.895836" />
    <radialGradient
       inkscape:collect="always"
       xlink:href="#linearGradient22122"
       id="radialGradient23040"
       gradientUnits="userSpaceOnUse"
       gradientTransform="matrix(0,-1.000001,1.142856,0,-41.10259,45.50001)"
       cx="7"
       cy="39.464806"
       fx="7"
       fy="39.464806"
       r="3.5" />
    <linearGradient
       inkscape:collect="always"
       id="linearGradient22122">
      <stop
         style="stop-color:black;stop-opacity:1;"
         offset="0"
         id="stop22124" />
      <stop
         style="stop-color:black;stop-opacity:0;"
         offset="1"
         id="stop22126" />
    </linearGradient>
    <radialGradient
       inkscape:collect="always"
       xlink:href="#linearGradient22122"
       id="radialGradient23042"
       gradientUnits="userSpaceOnUse"
       gradientTransform="matrix(0,-1.000001,1.142856,0,-89.10259,-31.49999)"
       cx="7"
       cy="39.464806"
       fx="7"
       fy="39.464806"
       r="3.5" />
    <linearGradient
       inkscape:collect="always"
       xlink:href="#linearGradient22140"
       id="linearGradient23044"
       gradientUnits="userSpaceOnUse"
       x1="18.142136"
       y1="35"
       x2="18.142136"
       y2="42.040661" />
    <linearGradient
       id="linearGradient22140">
      <stop
         style="stop-color:black;stop-opacity:0;"
         offset="0"
         id="stop22142" />
      <stop
         id="stop22148"
         offset="0.5"
         style="stop-color:black;stop-opacity:1;" />
      <stop
         style="stop-color:black;stop-opacity:0;"
         offset="1"
         id="stop22144" />
    </linearGradient>
    <linearGradient
       inkscape:collect="always"
       xlink:href="#linearGradient22096"
       id="linearGradient22038"
       gradientUnits="userSpaceOnUse"
       gradientTransform="matrix(0.953606,0,0,0.89449,-53.992775,29.762064)"
       x1="49.192623"
       y1="47.839993"
       x2="23.999998"
       y2="-1.1660151" />
    <linearGradient
       id="linearGradient22096">
      <stop
         id="stop22098"
         offset="0"
         style="stop-color:#babdb6;stop-opacity:1" />
      <stop
         id="stop22100"
         offset="1"
         style="stop-color:#eeeeec;stop-opacity:1" />
    </linearGradient>
    <linearGradient
       inkscape:collect="always"
       xlink:href="#linearGradient21795"
       id="linearGradient22040"
       gradientUnits="userSpaceOnUse"
       x1="7.0733995"
       y1="-17.029886"
       x2="8.4138842"
       y2="25.141916"
       gradientTransform="matrix(0.953606,0,0,0.999586,-53.992775,29.498696)" />
    <linearGradient
       id="linearGradient21795">
      <stop
         id="stop21797"
         offset="0"
         style="stop-color:#babdb6;stop-opacity:1" />
      <stop
         id="stop21799"
         offset="1"
         style="stop-color:#555753;stop-opacity:1" />
    </linearGradient>
    <linearGradient
       inkscape:collect="always"
       xlink:href="#linearGradient2882"
       id="linearGradient2888"
       x1="15.733126"
       y1="13.055305"
       x2="15.733126"
       y2="31.024576"
       gradientUnits="userSpaceOnUse" />
    <linearGradient
       id="linearGradient2882">
      <stop
         style="stop-color:white;stop-opacity:1;"
         offset="0"
         id="stop2884" />
      <stop
         id="stop2892"
         offset="0.39156628"
         style="stop-color:#fce94f;stop-opacity:1;" />
      <stop
         id="stop2890"
         offset="0.5"
         style="stop-color:#fce94f;stop-opacity:1;" />
      <stop
         style="stop-color:#fce94f;stop-opacity:1;"
         offset="0.69277108"
         id="stop2894" />
      <stop
         style="stop-color:white;stop-opacity:1;"
         offset="1"
         id="stop2886" />
    </linearGradient>
    <linearGradient
       inkscape:collect="always"
       xlink:href="#linearGradient3698"
       id="linearGradient22033"
       gradientUnits="userSpaceOnUse"
       x1="11.625"
       y1="5.3125"
       x2="11.625"
       y2="30.441309"
       gradientTransform="matrix(1,0,0,1.04,-54.109019,29.277661)" />
    <linearGradient
       id="linearGradient3698">
      <stop
         style="stop-color:#888a85;stop-opacity:1"
         offset="0"
         id="stop3700" />
      <stop
         style="stop-color:white;stop-opacity:1;"
         offset="1"
         id="stop3702" />
    </linearGradient>
    <radialGradient
       inkscape:collect="always"
       xlink:href="#linearGradient7269"
       id="radialGradient21844"
       gradientUnits="userSpaceOnUse"
       gradientTransform="matrix(1.293977,0,1.45815e-6,1.099043,-11.73899,-1.351307)"
       cx="39.542843"
       cy="14.356561"
       fx="39.542843"
       fy="14.356561"
       r="3.9323947" />
    <linearGradient
       id="linearGradient7269">
      <stop
         style="stop-color:#888a85;stop-opacity:1"
         offset="0"
         id="stop7271" />
      <stop
         style="stop-color:#2e3436;stop-opacity:1"
         offset="1"
         id="stop7273" />
    </linearGradient>
    <linearGradient
       inkscape:collect="always"
       xlink:href="#linearGradient8174"
       id="linearGradient21846"
       gradientUnits="userSpaceOnUse"
       x1="37.629791"
       y1="10.083087"
       x2="38.315701"
       y2="16.370573" />
    <linearGradient
       id="linearGradient8174">
      <stop
         style="stop-color:#555753;stop-opacity:1"
         offset="0"
         id="stop8176" />
      <stop
         style="stop-color:#2e3436;stop-opacity:1;"
         offset="1"
         id="stop8178" />
    </linearGradient>
    <radialGradient
       inkscape:collect="always"
       xlink:href="#linearGradient7269"
       id="radialGradient21848"
       gradientUnits="userSpaceOnUse"
       gradientTransform="matrix(1.293977,0,1.45815e-6,1.099043,-11.73899,-1.351307)"
       cx="39.542843"
       cy="14.356561"
       fx="39.542843"
       fy="14.356561"
       r="3.9323947" />
    <linearGradient
       id="linearGradient3369">
      <stop
         style="stop-color:#888a85;stop-opacity:1"
         offset="0"
         id="stop3371" />
      <stop
         style="stop-color:#2e3436;stop-opacity:1"
         offset="1"
         id="stop3373" />
    </linearGradient>
    <linearGradient
       inkscape:collect="always"
       xlink:href="#linearGradient8174"
       id="linearGradient21850"
       gradientUnits="userSpaceOnUse"
       x1="37.629791"
       y1="10.083087"
       x2="38.315701"
       y2="16.370573" />
    <linearGradient
       id="linearGradient3376">
      <stop
         style="stop-color:#555753;stop-opacity:1"
         offset="0"
         id="stop3378" />
      <stop
         style="stop-color:#2e3436;stop-opacity:1;"
         offset="1"
         id="stop3380" />
    </linearGradient>
    <radialGradient
       inkscape:collect="always"
       xlink:href="#linearGradient7269"
       id="radialGradient21852"
       gradientUnits="userSpaceOnUse"
       gradientTransform="matrix(1.293977,0,1.45815e-6,1.099043,-11.73899,-1.351307)"
       cx="39.542843"
       cy="14.356561"
       fx="39.542843"
       fy="14.356561"
       r="3.9323947" />
    <linearGradient
       id="linearGradient3383">
      <stop
         style="stop-color:#888a85;stop-opacity:1"
         offset="0"
         id="stop3385" />
      <stop
         style="stop-color:#2e3436;stop-opacity:1"
         offset="1"
         id="stop3387" />
    </linearGradient>
    <linearGradient
       inkscape:collect="always"
       xlink:href="#linearGradient8174"
       id="linearGradient21854"
       gradientUnits="userSpaceOnUse"
       x1="37.629791"
       y1="10.083087"
       x2="38.315701"
       y2="16.370573" />
    <linearGradient
       id="linearGradient3390">
      <stop
         style="stop-color:#555753;stop-opacity:1"
         offset="0"
         id="stop3392" />
      <stop
         style="stop-color:#2e3436;stop-opacity:1;"
         offset="1"
         id="stop3394" />
    </linearGradient>
    <linearGradient
       inkscape:collect="always"
       xlink:href="#linearGradient2803"
       id="linearGradient21992"
       gradientUnits="userSpaceOnUse"
       gradientTransform="matrix(0.950706,0,0,0.887885,-53.937061,29.888531)"
       x1="19.56567"
       y1="14.495519"
       x2="19.56567"
       y2="40.094608" />
    <linearGradient
       id="linearGradient2803">
      <stop
         style="stop-color:white;stop-opacity:1;"
         offset="0"
         id="stop2805" />
      <stop
         style="stop-color:white;stop-opacity:0.44642857;"
         offset="1"
         id="stop2807" />
    </linearGradient>
    <linearGradient
       inkscape:collect="always"
       xlink:href="#linearGradient2954"
       id="linearGradient2960"
       x1="25.544233"
       y1="37.525982"
       x2="25.588427"
       y2="36.465321"
       gradientUnits="userSpaceOnUse"
       gradientTransform="translate(-56.109019,26.497659)" />
    <linearGradient
       id="linearGradient2954">
      <stop
         style="stop-color:#babdb6;stop-opacity:1"
         offset="0"
         id="stop2956" />
      <stop
         style="stop-color:#eeeeec;stop-opacity:1"
         offset="1"
         id="stop2958" />
    </linearGradient>
    <linearGradient
       inkscape:collect="always"
       xlink:href="#linearGradient2969"
       id="linearGradient2952"
       x1="24.78125"
       y1="35.4375"
       x2="24.78125"
       y2="38.601322"
       gradientUnits="userSpaceOnUse"
       gradientTransform="translate(-56.109019,26.497659)" />
    <linearGradient
       id="linearGradient2969">
      <stop
         id="stop2971"
         offset="0"
         style="stop-color:#888a85;stop-opacity:1" />
      <stop
         id="stop2973"
         offset="1"
         style="stop-color:white;stop-opacity:1;" />
    </linearGradient>
    <linearGradient
       inkscape:collect="always"
       xlink:href="#linearGradient2987"
       id="linearGradient2965"
       gradientUnits="userSpaceOnUse"
       x1="25.544233"
       y1="37.525982"
       x2="25.588427"
       y2="36.465321"
       gradientTransform="translate(-49.109019,26.497659)" />
    <linearGradient
       id="linearGradient2987">
      <stop
         id="stop2989"
         offset="0"
         style="stop-color:#babdb6;stop-opacity:1" />
      <stop
         id="stop2991"
         offset="1"
         style="stop-color:#eeeeec;stop-opacity:1" />
    </linearGradient>
    <linearGradient
       inkscape:collect="always"
       xlink:href="#linearGradient3698"
       id="linearGradient2967"
       gradientUnits="userSpaceOnUse"
       x1="24.78125"
       y1="35.4375"
       x2="24.78125"
       y2="38.601322"
       gradientTransform="translate(-49.109019,26.497659)" />
    <linearGradient
       id="linearGradient3413">
      <stop
         style="stop-color:#888a85;stop-opacity:1"
         offset="0"
         id="stop3415" />
      <stop
         style="stop-color:white;stop-opacity:1;"
         offset="1"
         id="stop3417" />
    </linearGradient>
    <radialGradient
       r="14.375"
       fy="125"
       fx="55"
       cy="125"
       cx="55"
       gradientUnits="userSpaceOnUse"
       id="radialGradient3199"
       xlink:href="#linearGradient12512"
       inkscape:collect="always" />
    <linearGradient
       id="linearGradient12512">
      <stop
         style="stop-color:#ffffff;stop-opacity:1.0000000;"
         offset="0.0000000"
         id="stop12513" />
      <stop
         style="stop-color:#fff520;stop-opacity:0.89108908;"
         offset="0.50000000"
         id="stop12517" />
      <stop
         style="stop-color:#fff300;stop-opacity:0.0000000;"
         offset="1.0000000"
         id="stop12514" />
    </linearGradient>
    <linearGradient
       y2="42.040661"
       x2="18.142136"
       y1="35"
       x1="18.142136"
       gradientUnits="userSpaceOnUse"
       id="linearGradient3496"
       xlink:href="#linearGradient22140"
       inkscape:collect="always" />
  </defs>
  <g
     inkscape:groupmode="layer"
     id="layer1"
     inkscape:label="pixmap"
     style="display:inline" />
  <g
     inkscape:groupmode="layer"
     id="layer2"
     inkscape:label="vectors"
     style="display:inline">
    <g
       transform="matrix(0.216083,0,0,0.226386,-1.393233,-2.889517)"
       id="g1197"
       inkscape:r_cx="true"
       inkscape:r_cy="true">
      <path
         d="M 32.706693,164.36026 C 22.319193,164.36026 13.956693,172.72276 13.956693,183.11026 C 13.956693,193.49776 22.319193,201.86026 32.706693,201.86026 L 205.20669,201.86026 C 215.59419,201.86026 223.95669,193.49776 223.95669,183.11026 C 223.95669,172.72276 215.59419,164.36026 205.20669,164.36026 L 32.706693,164.36026 z "
         style="opacity:0.04787233;fill-rule:evenodd;stroke-width:3pt"
         id="path1196"
         inkscape:r_cx="true"
         inkscape:r_cy="true" />
      <path
         d="M 32.706693,165.61026 C 23.011693,165.61026 15.206693,173.41526 15.206693,183.11026 C 15.206693,192.80526 23.011693,200.61026 32.706693,200.61026 L 205.20669,200.61026 C 214.90169,200.61026 222.70669,192.80526 222.70669,183.11026 C 222.70669,173.41526 214.90169,165.61026 205.20669,165.61026 L 32.706693,165.61026 z "
         style="opacity:0.04787233;fill-rule:evenodd;stroke-width:3pt"
         id="path1195"
         inkscape:r_cx="true"
         inkscape:r_cy="true" />
      <path
         d="M 32.706694,166.86026 C 23.704194,166.86026 16.456694,174.10776 16.456694,183.11026 C 16.456694,192.11276 23.704194,199.36026 32.706694,199.36026 L 205.20669,199.36026 C 214.20919,199.36026 221.45669,192.11276 221.45669,183.11026 C 221.45669,174.10776 214.20919,166.86026 205.20669,166.86026 L 32.706694,166.86026 z "
         style="opacity:0.04787233;fill-rule:evenodd;stroke-width:3pt"
         id="path1194"
         inkscape:r_cx="true"
         inkscape:r_cy="true" />
      <path
         d="M 32.706694,168.11026 C 24.396694,168.11026 17.706694,174.80026 17.706694,183.11026 C 17.706694,191.42026 24.396694,198.11026 32.706694,198.11026 L 205.20669,198.11026 C 213.51669,198.11026 220.20669,191.42026 220.20669,183.11026 C 220.20669,174.80026 213.51669,168.11026 205.20669,168.11026 L 32.706694,168.11026 z "
         style="opacity:0.04787233;fill-rule:evenodd;stroke-width:3pt"
         id="path1193"
         inkscape:r_cx="true"
         inkscape:r_cy="true" />
      <path
         d="M 32.707764,169.36026 C 25.090264,169.36026 18.957764,175.49276 18.957764,183.11026 C 18.957764,190.72776 25.090264,196.86026 32.707764,196.86026 L 205.20618,196.86026 C 212.82368,196.86026 218.95618,190.72776 218.95618,183.11026 C 218.95618,175.49276 212.82368,169.36026 205.20618,169.36026 L 32.707764,169.36026 z "
         style="opacity:0.04787233;fill-rule:evenodd;stroke-width:3pt"
         id="path1192"
         inkscape:r_cx="true"
         inkscape:r_cy="true" />
      <path
         d="M 32.706694,170.61026 C 25.781694,170.61026 20.206694,176.18526 20.206694,183.11026 C 20.206694,190.03526 25.781694,195.61026 32.706694,195.61026 L 205.20669,195.61026 C 212.13169,195.61026 217.70669,190.03526 217.70669,183.11026 C 217.70669,176.18526 212.13169,170.61026 205.20669,170.61026 L 32.706694,170.61026 z "
         style="opacity:0.04787233;fill-rule:evenodd;stroke-width:3pt"
         id="path1191"
         inkscape:r_cx="true"
         inkscape:r_cy="true" />
      <path
         d="M 32.706694,171.86026 C 26.474194,171.86026 21.456694,176.87776 21.456694,183.11026 C 21.456694,189.34276 26.474194,194.36026 32.706694,194.36026 L 205.20669,194.36026 C 211.43919,194.36026 216.45669,189.34276 216.45669,183.11026 C 216.45669,176.87776 211.43919,171.86026 205.20669,171.86026 L 32.706694,171.86026 z "
         style="opacity:0.04787233;fill-rule:evenodd;stroke-width:3pt"
         id="path1190"
         inkscape:r_cx="true"
         inkscape:r_cy="true" />
      <path
         d="M 32.706694,173.11026 C 27.166694,173.11026 22.706694,177.57026 22.706694,183.11026 C 22.706694,188.65026 27.166694,193.11026 32.706694,193.11026 L 205.20669,193.11026 C 210.74669,193.11026 215.20669,188.65026 215.20669,183.11026 C 215.20669,177.57026 210.74669,173.11026 205.20669,173.11026 L 32.706694,173.11026 z "
         style="opacity:0.04787233;fill-rule:evenodd;stroke-width:3pt"
         id="path1189"
         inkscape:r_cx="true"
         inkscape:r_cy="true" />
    </g>
    <path
       d="M 5.4186638,5.4561100 C 4.9536872,5.4561100 4.6035534,5.6913368 4.6035534,6.1828330 L 4.6035534,39.203794 C 4.6035534,39.930940 5.0906584,40.415354 5.7526104,40.415354 L 43.489564,40.415354 C 44.155366,40.415354 44.419872,39.962588 44.419872,39.328794 L 44.419872,10.425912 C 44.419872,9.8829469 44.019585,9.5893540 43.520814,9.5893540 L 24.411490,9.5893540 C 24.074477,9.5893540 23.714810,9.3909280 23.517009,9.1180670 L 20.914778,5.9180580 C 20.696913,5.6175190 20.272703,5.4561250 19.901500,5.4561250 L 5.4186638,5.4561100 z "
       style="fill:url(#linearGradient253);fill-opacity:1.0000000;fill-rule:evenodd;stroke:#555753;stroke-width:1.0000000;stroke-miterlimit:4.0000000;stroke-opacity:1"
       id="path895"
       sodipodi:nodetypes="ccccccccccccc" />
    <g
       id="g891"
       transform="matrix(0.186703,0.000000,0.000000,0.186703,-21.10730,57.62299)" />
    <path
       style="color:#000000;fill:url(#linearGradient320);fill-opacity:1.0000000;fill-rule:evenodd;stroke:none;stroke-width:0.25000000pt;stroke-linecap:butt;stroke-linejoin:miter;stroke-miterlimit:4.0000000;stroke-dashoffset:0.0000000;stroke-opacity:1.0000000;marker:none;marker-start:none;marker-mid:none;marker-end:none;visibility:visible;display:inline;overflow:visible"
       d="M 5.0625000,7.9062500 L 5.0625000,36.156250 L 6.0312500,31.781250 L 6.2500000,9.1562500 C 6.2500000,8.4058274 6.7614657,8.0312500 7.4869586,8.0312500 L 19.093750,8.0312500 C 20.655346,8.0312500 22.108598,11.218750 24.411417,11.218750 C 30.383036,11.218750 43.749813,11.306338 43.750000,11.218750 L 43.750000,10.187500 L 24.218750,10.062500 C 22.362615,10.050621 21.088324,6.9062500 19.656250,6.9062500 L 6.2838336,6.9062500 C 5.4685048,6.9062500 5.0625000,7.2604161 5.0625000,7.9062500 z "
       id="path315"
       sodipodi:nodetypes="ccccczscczzcc" />
    <path
       style="opacity:1;color:#000000;fill:url(#linearGradient4740);fill-opacity:1;fill-rule:evenodd;stroke:#555753;stroke-width:0.99999988;stroke-linecap:butt;stroke-linejoin:round;marker:none;marker-start:none;marker-mid:none;marker-end:none;stroke-miterlimit:4;stroke-dasharray:none;stroke-dashoffset:0;stroke-opacity:1;visibility:visible;display:inline;overflow:visible"
       d="M 4.9959,22.514836 L 14.898103,22.514836 C 15.636925,22.514836 16.260703,22.189966 16.578647,21.762396 C 16.714853,21.579227 17.841652,20.258756 17.930992,20.147428 C 18.228606,19.776564 18.700874,19.499995 19.267706,19.499995 L 44.969486,19.499995 C 45.972296,19.499995 46.474966,20.051267 46.41296,20.731426 L 44.72546,39.241909 C 44.627029,40.321615 44.019171,40.499998 43.219486,40.499998 L 5.443473,40.499998 C 4.643789,40.499998 4.0752087,39.947803 4,39.268568 L 2.375,24.59267 C 2.2214938,23.206306 3.323339,22.514836 4.9959,22.514836 z "
       id="rect337"
       sodipodi:nodetypes="czzszssssssss"
       inkscape:r_cx="true"
       inkscape:r_cy="true" />
    <path
       style="color:#000000;fill:url(#linearGradient2892);fill-opacity:1;fill-rule:evenodd;stroke:none;stroke-width:0.25pt;stroke-linecap:butt;stroke-linejoin:miter;marker:none;marker-start:none;marker-mid:none;marker-end:none;stroke-miterlimit:4;stroke-dashoffset:0;stroke-opacity:1;visibility:visible;display:inline;overflow:visible"
       d="M 19.152268,20 C 17.826703,20 17.562575,22.989175 15.042893,23.051675 C 13.793277,23.082671 5.1660533,23.051675 4.6660533,23.051675 C 3.2543312,23.051675 2.9160533,23.5756 2.9160533,24.588064 C 2.9160533,25.136772 4.4901965,38.835018 4.4901965,38.835018 C 4.5631132,39.658084 4.6047798,40.014745 5.4589465,40.014745 C 5.4589465,40.014745 3.9160533,25.136775 3.9160533,24.588064 C 3.9160533,24.213934 4.2155211,23.929611 4.6660533,23.929611 C 5.1660533,23.929611 13.792893,23.929611 15.042893,23.929611 C 18.720507,23.929611 18.496415,20.877936 19.667893,20.877936 C 20.88456,20.877936 44.795495,20.932807 44.795495,20.932807 L 44.928077,20.054871 C 44.928077,20.054871 20.435601,20 19.152268,20 z "
       id="path349"
       sodipodi:nodetypes="csssccssssccs"
       inkscape:r_cx="true"
       inkscape:r_cy="true" />
    <rect
       style="color:#000000;fill:#fffffd;fill-opacity:1.0000000;fill-rule:evenodd;stroke:none;stroke-width:0.25000000pt;stroke-linecap:butt;stroke-linejoin:miter;stroke-miterlimit:4.0000000;stroke-dashoffset:0.0000000;stroke-opacity:1.0000000;marker:none;marker-start:none;marker-mid:none;marker-end:none;visibility:visible;display:inline;overflow:visible"
       id="rect459"
       width="1.2500000"
       height="1.2500000"
       x="5.5290294"
       y="7.3598347"
       rx="1.4434735"
       ry="1.2500000" />
    <g
       id="g3489"
       transform="matrix(0.55,0,0,0.55,29.66604,10.556641)">
      <rect
         ry="2.0191925"
         rx="1.9255137"
         y="32.003662"
         x="-51.603436"
         height="33.979904"
         width="40.994408"
         id="rect1343"
         style="fill:url(#linearGradient22038);fill-opacity:1;stroke:url(#linearGradient22040);stroke-width:1;stroke-linecap:round;stroke-linejoin:round;stroke-miterlimit:4;stroke-opacity:1;stroke-dasharray:none" />
      <path
         sodipodi:type="arc"
         style="opacity:0.4;fill:#000000;fill-opacity:1;stroke:#000000;stroke-width:1.64285827;stroke-linecap:round;stroke-linejoin:round;stroke-miterlimit:4;stroke-opacity:1;stroke-dasharray:none"
         id="path20800"
         sodipodi:cx="39.42857"
         sodipodi:cy="13.142858"
         sodipodi:rx="3.2857144"
         sodipodi:ry="3.2857144"
         d="m 42.714284,13.142858 c 0,1.81465 -1.471064,3.285714 -3.285714,3.285714 -1.81465,0 -3.285715,-1.471064 -3.285715,-3.285714 0,-1.81465 1.471065,-3.2857148 3.285715,-3.2857148 1.81465,0 3.285714,1.4710648 3.285714,3.2857148 z"
         transform="matrix(0.608696,0,0,0.608695,-39.609029,31.997669)" />
      <rect
         ry="0.03128048"
         rx="0.093000002"
         y="35.997658"
         x="-47.624641"
         height="23.999994"
         width="26.015625"
         id="rect2224"
         style="fill:#4e9a06;fill-opacity:1;stroke:#397503;stroke-width:0.99999988;stroke-linecap:round;stroke-linejoin:round;stroke-miterlimit:4;stroke-opacity:1;stroke-dasharray:none" />
      <g
         transform="translate(-54.109019,25.497659)"
         id="g22114">
        <path
           style="opacity:0.11583013;fill:none;stroke:#fce94f;stroke-width:3;stroke-linecap:butt;stroke-linejoin:miter;stroke-miterlimit:10;stroke-opacity:1;stroke-dasharray:none"
           d="m 7,23.5 5.5,0 3,-7.5 2,12 2,-4.5 2.75,0 2.25,-4 1,8 1.5,-4 5,0"
           id="path22112"
           sodipodi:nodetypes="cccccccccc"
           inkscape:connector-curvature="0" />
        <path
           style="fill:none;stroke:url(#linearGradient2888);stroke-width:1;stroke-linecap:butt;stroke-linejoin:miter;stroke-miterlimit:10;stroke-opacity:1;stroke-dasharray:none"
           d="m 7,23.5 5.5,0 3,-7.5 2,12 2,-4.5 2.75,0 2.25,-4 1,8 1.5,-4 5,0"
           id="path22106"
           sodipodi:nodetypes="cccccccccc"
           inkscape:connector-curvature="0" />
      </g>
      <rect
         ry="1.0658708"
         rx="1.03"
         y="34.997662"
         x="-48.60902"
         height="26.000004"
         width="27.999996"
         id="rect2811"
         style="fill:none;stroke:url(#linearGradient22033);stroke-width:1.00000012;stroke-linecap:square;stroke-linejoin:miter;stroke-miterlimit:4;stroke-opacity:1;stroke-dasharray:none;stroke-dashoffset:10" />
      <g
         transform="translate(-56.109019,28.497659)"
         id="g20766">
        <path
           sodipodi:type="arc"
           style="fill:url(#radialGradient21844);fill-opacity:1;stroke:url(#linearGradient21846);stroke-width:1.64285827;stroke-linecap:round;stroke-linejoin:round;stroke-miterlimit:4;stroke-opacity:1;stroke-dasharray:none"
           id="path17146"
           sodipodi:cx="39.42857"
           sodipodi:cy="13.142858"
           sodipodi:rx="3.2857144"
           sodipodi:ry="3.2857144"
           d="m 42.714284,13.142858 c 0,1.81465 -1.471064,3.285714 -3.285714,3.285714 -1.81465,0 -3.285715,-1.471064 -3.285715,-3.285714 0,-1.81465 1.471065,-3.2857148 3.285715,-3.2857148 1.81465,0 3.285714,1.4710648 3.285714,3.2857148 z"
           transform="matrix(0.608696,0,0,0.608695,16.49999,2.50001)" />
        <path
           transform="matrix(1.21739,0,0,1.217389,-7.499959,-5.499963)"
           style="fill:none;stroke:#555753;stroke-width:0.82143021;stroke-linecap:butt;stroke-linejoin:miter;stroke-miterlimit:4;stroke-opacity:1;stroke-dasharray:0.82143018, 0.82143018;stroke-dashoffset:0.98571621"
           d="M 36.583058,14.785715 C 35.6762,13.214992 36.21499,11.204203 37.785713,10.297345 38.309287,9.9950597 38.823998,9.8571432 39.42857,9.8571432"
           id="path18989"
           sodipodi:nodetypes="csc"
           inkscape:connector-curvature="0" />
      </g>
      <path
         sodipodi:type="arc"
         style="opacity:0.4;fill:#000000;fill-opacity:1;stroke:#000000;stroke-width:1.64285827;stroke-linecap:round;stroke-linejoin:round;stroke-miterlimit:4;stroke-opacity:1;stroke-dasharray:none"
         id="path20806"
         sodipodi:cx="39.42857"
         sodipodi:cy="13.142858"
         sodipodi:rx="3.2857144"
         sodipodi:ry="3.2857144"
         d="m 42.714284,13.142858 c 0,1.81465 -1.471064,3.285714 -3.285714,3.285714 -1.81465,0 -3.285715,-1.471064 -3.285715,-3.285714 0,-1.81465 1.471065,-3.2857148 3.285715,-3.2857148 1.81465,0 3.285714,1.4710648 3.285714,3.2857148 z"
         transform="matrix(0.608696,0,0,0.608695,-39.609029,40.997669)" />
      <g
         transform="translate(-56.109019,37.497659)"
         id="g20776">
        <path
           sodipodi:type="arc"
           style="fill:url(#radialGradient21848);fill-opacity:1;stroke:url(#linearGradient21850);stroke-width:1.64285827;stroke-linecap:round;stroke-linejoin:round;stroke-miterlimit:4;stroke-opacity:1;stroke-dasharray:none"
           id="path20778"
           sodipodi:cx="39.42857"
           sodipodi:cy="13.142858"
           sodipodi:rx="3.2857144"
           sodipodi:ry="3.2857144"
           d="m 42.714284,13.142858 c 0,1.81465 -1.471064,3.285714 -3.285714,3.285714 -1.81465,0 -3.285715,-1.471064 -3.285715,-3.285714 0,-1.81465 1.471065,-3.2857148 3.285715,-3.2857148 1.81465,0 3.285714,1.4710648 3.285714,3.2857148 z"
           transform="matrix(0.608696,0,0,0.608695,16.49999,2.50001)" />
        <path
           transform="matrix(1.21739,0,0,1.217389,-7.499959,-5.499963)"
           style="fill:none;stroke:#555753;stroke-width:0.82143021;stroke-linecap:butt;stroke-linejoin:miter;stroke-miterlimit:4;stroke-opacity:1;stroke-dasharray:0.82143018, 0.82143018;stroke-dashoffset:0.98571621"
           d="M 36.583058,14.785715 C 35.6762,13.214992 36.21499,11.204203 37.785713,10.297345 38.309287,9.9950597 38.823998,9.8571432 39.42857,9.8571432"
           id="path20780"
           sodipodi:nodetypes="csc"
           inkscape:connector-curvature="0" />
      </g>
      <path
         sodipodi:type="arc"
         style="opacity:0.4;fill:#000000;fill-opacity:1;stroke:#000000;stroke-width:1.64285827;stroke-linecap:round;stroke-linejoin:round;stroke-miterlimit:4;stroke-opacity:1;stroke-dasharray:none"
         id="path20810"
         sodipodi:cx="39.42857"
         sodipodi:cy="13.142858"
         sodipodi:rx="3.2857144"
         sodipodi:ry="3.2857144"
         d="m 42.714284,13.142858 c 0,1.81465 -1.471064,3.285714 -3.285714,3.285714 -1.81465,0 -3.285715,-1.471064 -3.285715,-3.285714 0,-1.81465 1.471065,-3.2857148 3.285715,-3.2857148 1.81465,0 3.285714,1.4710648 3.285714,3.2857148 z"
         transform="matrix(0.608696,0,0,0.608695,-39.609029,49.997669)" />
      <g
         transform="translate(-56.109019,46.497659)"
         id="g20788">
        <path
           sodipodi:type="arc"
           style="fill:url(#radialGradient21852);fill-opacity:1;stroke:url(#linearGradient21854);stroke-width:1.64285827;stroke-linecap:round;stroke-linejoin:round;stroke-miterlimit:4;stroke-opacity:1;stroke-dasharray:none"
           id="path20790"
           sodipodi:cx="39.42857"
           sodipodi:cy="13.142858"
           sodipodi:rx="3.2857144"
           sodipodi:ry="3.2857144"
           d="m 42.714284,13.142858 c 0,1.81465 -1.471064,3.285714 -3.285714,3.285714 -1.81465,0 -3.285715,-1.471064 -3.285715,-3.285714 0,-1.81465 1.471065,-3.2857148 3.285715,-3.2857148 1.81465,0 3.285714,1.4710648 3.285714,3.2857148 z"
           transform="matrix(0.608696,0,0,0.608695,16.49999,2.50001)" />
        <path
           transform="matrix(1.21739,0,0,1.217389,-7.499959,-5.499963)"
           style="fill:none;stroke:#555753;stroke-width:0.82143021;stroke-linecap:butt;stroke-linejoin:miter;stroke-miterlimit:4;stroke-opacity:1;stroke-dasharray:0.82143018, 0.82143018;stroke-dashoffset:0.98571621"
           d="M 36.583058,14.785715 C 35.6762,13.214992 36.21499,11.204203 37.785713,10.297345 38.309287,9.9950597 38.823998,9.8571432 39.42857,9.8571432"
           id="path20792"
           sodipodi:nodetypes="csc"
           inkscape:connector-curvature="0" />
      </g>
      <g
         transform="matrix(1,0,0,0.5,-54.109019,47.497659)"
         style="opacity:0.6"
         id="g21783">
        <rect
           style="opacity:0.88803089;fill:#ffffff;fill-opacity:1;stroke:none"
           id="rect21744"
           width="1"
           height="6"
           x="6"
           y="30" />
        <rect
           style="opacity:0.88803089;fill:#ffffff;fill-opacity:1;stroke:none"
           id="rect21746"
           width="1"
           height="6"
           x="8"
           y="30" />
        <rect
           style="opacity:0.88803089;fill:#ffffff;fill-opacity:1;stroke:none"
           id="rect21748"
           width="1"
           height="6"
           x="10"
           y="30" />
        <rect
           style="opacity:0.88803089;fill:#ffffff;fill-opacity:1;stroke:none"
           id="rect21752"
           width="1"
           height="6"
           x="12"
           y="30" />
        <rect
           style="opacity:0.88803089;fill:#ffffff;fill-opacity:1;stroke:none"
           id="rect21754"
           width="1"
           height="6"
           x="14"
           y="30" />
        <rect
           style="opacity:0.88803089;fill:#ffffff;fill-opacity:1;stroke:none"
           id="rect21756"
           width="1"
           height="6"
           x="16"
           y="30" />
        <rect
           style="opacity:0.88803089;fill:#ffffff;fill-opacity:1;stroke:none"
           id="rect21758"
           width="1"
           height="6"
           x="18"
           y="30" />
      </g>
      <g
         transform="matrix(1,0,0,0.5,-56.109019,47.497659)"
         style="opacity:0.16216215;fill:#000000;fill-opacity:1"
         id="g21774">
        <rect
           style="opacity:0.88803089;fill:#000000;fill-opacity:1;stroke:none"
           id="rect21760"
           width="1"
           height="6"
           x="7"
           y="30" />
        <rect
           style="opacity:0.88803089;fill:#000000;fill-opacity:1;stroke:none"
           id="rect21762"
           width="1"
           height="6"
           x="9"
           y="30" />
        <rect
           style="opacity:0.88803089;fill:#000000;fill-opacity:1;stroke:none"
           id="rect21764"
           width="1"
           height="6"
           x="11"
           y="30" />
        <rect
           style="opacity:0.88803089;fill:#000000;fill-opacity:1;stroke:none"
           id="rect21766"
           width="1"
           height="6"
           x="13"
           y="30" />
        <rect
           style="opacity:0.88803089;fill:#000000;fill-opacity:1;stroke:none"
           id="rect21768"
           width="1"
           height="6"
           x="15"
           y="30" />
        <rect
           style="opacity:0.88803089;fill:#000000;fill-opacity:1;stroke:none"
           id="rect21770"
           width="1"
           height="6"
           x="17"
           y="30" />
        <rect
           style="opacity:0.88803089;fill:#000000;fill-opacity:1;stroke:none"
           id="rect21772"
           width="1"
           height="6"
           x="19"
           y="30" />
      </g>
      <rect
         ry="1.0578866"
         rx="1.0057391"
         y="32.983997"
         x="-50.62059"
         height="31.998758"
         width="39.011562"
         id="rect2218"
         style="fill:none;stroke:url(#linearGradient21992);stroke-width:1;stroke-linecap:round;stroke-linejoin:round;stroke-miterlimit:4;stroke-opacity:1;stroke-dasharray:none" />
      <g
         transform="translate(-54.109019,25.497659)"
         style="opacity:0.4;fill:#fce94f"
         id="g22069">
        <rect
           style="fill:#fce94f;fill-opacity:1;stroke:none"
           id="rect21866"
           width="0.99999809"
           height="1"
           x="7.0000019"
           y="11" />
        <rect
           style="fill:#fce94f;fill-opacity:1;stroke:none"
           id="rect21868"
           width="0.99999809"
           height="1"
           x="13.000002"
           y="11" />
        <rect
           style="fill:#fce94f;fill-opacity:1;stroke:none"
           id="rect21870"
           width="0.99999809"
           height="1"
           x="19.000002"
           y="11" />
        <rect
           style="fill:#fce94f;fill-opacity:1;stroke:none"
           id="rect21874"
           width="0.99999809"
           height="1"
           x="25.000002"
           y="11" />
        <rect
           style="fill:#fce94f;fill-opacity:1;stroke:none"
           id="rect21928"
           width="0.99999809"
           height="1"
           x="31.000002"
           y="11" />
        <rect
           style="fill:#fce94f;fill-opacity:1;stroke:none"
           id="rect21939"
           width="0.99999809"
           height="1"
           x="7.0000019"
           y="17" />
        <rect
           style="fill:#fce94f;fill-opacity:1;stroke:none"
           id="rect21941"
           width="0.99999809"
           height="1"
           x="13.000002"
           y="17" />
        <rect
           style="fill:#fce94f;fill-opacity:1;stroke:none"
           id="rect21943"
           width="0.99999809"
           height="1"
           x="19.000002"
           y="17" />
        <rect
           style="fill:#fce94f;fill-opacity:1;stroke:none"
           id="rect21945"
           width="0.99999809"
           height="1"
           x="25.000002"
           y="17" />
        <rect
           style="fill:#fce94f;fill-opacity:1;stroke:none"
           id="rect21947"
           width="0.99999809"
           height="1"
           x="31.000002"
           y="17" />
        <rect
           style="fill:#fce94f;fill-opacity:1;stroke:none"
           id="rect21951"
           width="0.99999809"
           height="1"
           x="7.0000019"
           y="23" />
        <rect
           style="fill:#fce94f;fill-opacity:1;stroke:none"
           id="rect21953"
           width="0.99999809"
           height="1"
           x="13.000002"
           y="23" />
        <rect
           style="fill:#fce94f;fill-opacity:1;stroke:none"
           id="rect21955"
           width="0.99999809"
           height="1"
           x="19.000002"
           y="23" />
        <rect
           style="fill:#fce94f;fill-opacity:1;stroke:none"
           id="rect21957"
           width="0.99999809"
           height="1"
           x="25.000002"
           y="23" />
        <rect
           style="fill:#fce94f;fill-opacity:1;stroke:none"
           id="rect21959"
           width="0.99999809"
           height="1"
           x="31.000002"
           y="23" />
        <rect
           style="fill:#fce94f;fill-opacity:1;stroke:none"
           id="rect21963"
           width="0.99999809"
           height="1"
           x="7.0000019"
           y="28" />
        <rect
           style="fill:#fce94f;fill-opacity:1;stroke:none"
           id="rect21965"
           width="0.99999809"
           height="1"
           x="13.000002"
           y="28" />
        <rect
           style="fill:#fce94f;fill-opacity:1;stroke:none"
           id="rect21967"
           width="0.99999809"
           height="1"
           x="19.000002"
           y="28" />
        <rect
           style="fill:#fce94f;fill-opacity:1;stroke:none"
           id="rect21969"
           width="0.99999809"
           height="1"
           x="25.000002"
           y="28" />
        <rect
           style="fill:#fce94f;fill-opacity:1;stroke:none"
           id="rect21971"
           width="0.99999809"
           height="1"
           x="31.000002"
           y="28" />
        <rect
           style="fill:#fce94f;fill-opacity:1;stroke:none"
           id="rect21981"
           width="0.99999809"
           height="1"
           x="7.0000019"
           y="33" />
        <rect
           style="fill:#fce94f;fill-opacity:1;stroke:none"
           id="rect21983"
           width="0.99999809"
           height="1"
           x="13.000002"
           y="33" />
        <rect
           style="fill:#fce94f;fill-opacity:1;stroke:none"
           id="rect21985"
           width="0.99999809"
           height="1"
           x="19.000002"
           y="33" />
        <rect
           style="fill:#fce94f;fill-opacity:1;stroke:none"
           id="rect21987"
           width="0.99999809"
           height="1"
           x="25.000002"
           y="33" />
        <rect
           style="fill:#fce94f;fill-opacity:1;stroke:none"
           id="rect21989"
           width="0.99999809"
           height="1"
           x="31.000002"
           y="33" />
      </g>
      <path
         sodipodi:nodetypes="ccccccc"
         id="rect4591"
         d="m -47.01694,36.497659 24.815842,0 c 0.05101,0 0.09208,0.01032 0.09208,0.02314 l 0,10.95372 c -1.156315,-0.789921 -10.34356,-3.721193 -25,2 l 0,-12.95372 c 0,-0.01282 0.04107,-0.02314 0.09208,-0.02314 z"
         style="opacity:0.15;fill:#eeeeec;fill-opacity:1;stroke:none"
         inkscape:connector-curvature="0" />
      <g
         transform="translate(-52.109019,26.497659)"
         id="g2911">
        <path
           sodipodi:type="arc"
           style="fill:#fce94f;fill-opacity:1;stroke:#c4a000;stroke-width:1.25;stroke-linecap:square;stroke-linejoin:miter;stroke-miterlimit:10;stroke-opacity:1;stroke-dasharray:none;stroke-dashoffset:1.20000057"
           id="path2891"
           sodipodi:cx="41.25"
           sodipodi:cy="36.25"
           sodipodi:rx="1.25"
           sodipodi:ry="1.25"
           d="m 42.5,36.25 c 0,0.690356 -0.559644,1.25 -1.25,1.25 C 40.559644,37.5 40,36.940356 40,36.25 40,35.559644 40.559644,35 41.25,35 c 0.690356,0 1.25,0.559644 1.25,1.25 z"
           transform="matrix(0.8,0,0,0.8,5.5,7.5)" />
        <path
           sodipodi:type="arc"
           style="fill:#ffffff;fill-opacity:1;stroke:none"
           id="path2893"
           sodipodi:cx="42.046875"
           sodipodi:cy="36.078125"
           sodipodi:rx="0.46875"
           sodipodi:ry="0.453125"
           d="m 42.515625,36.078125 c 0,0.250254 -0.209867,0.453125 -0.46875,0.453125 -0.258883,0 -0.46875,-0.202871 -0.46875,-0.453125 0,-0.250254 0.209867,-0.453125 0.46875,-0.453125 0.258883,0 0.46875,0.202871 0.46875,0.453125 z"
           transform="translate(-4,0)" />
      </g>
      <rect
         ry="1.4999999"
         rx="1.4999999"
         y="61.997658"
         x="-33.609024"
         height="2.9999998"
         width="4.999999"
         id="rect2944"
         style="fill:url(#linearGradient2960);fill-opacity:1;stroke:url(#linearGradient2952);stroke-width:0.99999982;stroke-linecap:butt;stroke-linejoin:miter;stroke-miterlimit:4;stroke-opacity:1;stroke-dasharray:none;stroke-dashoffset:1.20000057" />
      <rect
         ry="1.4999999"
         rx="1.4999999"
         y="61.997658"
         x="-26.609028"
         height="2.9999998"
         width="4.999999"
         id="rect2963"
         style="fill:url(#linearGradient2965);fill-opacity:1;stroke:url(#linearGradient2967);stroke-width:0.99999982;stroke-linecap:butt;stroke-linejoin:miter;stroke-miterlimit:4;stroke-opacity:1;stroke-dasharray:none;stroke-dashoffset:1.20000057" />
    </g>
  </g>
</svg>
